<svg xmlns="http://www.w3.org/2000/svg" viewBox="0 0 64 64" role="img" aria-label="Pitch Atlas seal">
  <rect width="64" height="64" rx="9" fill="#f3ece0"/>
  <g fill="none">
    <circle cx="32" cy="32" r="26.5" stroke="#06233a" stroke-width="3.4"/>
    <circle cx="32" cy="32" r="22" stroke="#a92a22" stroke-width="1.5"/>
  </g>
  <g fill="#06233a">
    <path d="M32 9.5 l3.4 6.2 -6.8 0 z"/>
    <path d="M32 54.5 l3.4 -6.2 -6.8 0 z"/>
    <path d="M9.5 32 l6.2 3.4 0 -6.8 z"/>
    <path d="M54.5 32 l-6.2 3.4 0 -6.8 z"/>
  </g>
  <path d="M32 17.5 L44 43 L37 43 L32 31.5 L27 43 L20 43 Z" fill="#06233a"/>
  <g stroke="#a92a22" stroke-width="1.7" stroke-linecap="round">
    <path d="M29.5 25 l-3.2 1.1"/>
    <path d="M27.6 30 l-3.2 1.1"/>
    <path d="M25.7 35 l-3.2 1.1"/>
    <path d="M34.5 25 l3.2 1.1"/>
    <path d="M36.4 30 l3.2 1.1"/>
    <path d="M38.3 35 l3.2 1.1"/>
  </g>
</svg>
